<svg xmlns="http://www.w3.org/2000/svg" version="1.1" xmlns:xlink="http://www.w3.org/1999/xlink" xmlns:svgjs="http://svgjs.dev/svgjs" width="100%" height="100%" viewBox="0 0 1000 600"><rect width="1000" height="600" x="0" y="0" fill="#f9d342"/><g><rect width="333.3333333333333" height="333.3333333333333" rx="13.333333333333334" ry="13.333333333333334" y="134.61233350338102" fill="#292826" transform="matrix(1.1121973418954185,0,0,1.1121973418954185,0,-35.08172486463377)" x="112.39009857177733"/><path d="M174.35285986539705 329.7019347182579L185.39863890262365 235.6658158424011L168.91396866645846 233.8388523894758L168.91396866645846 226.27900361875035L208.98116715130323 226.27900361875035L230.2957407687652 294.31764255527924L235.29364078941146 313.532258180873L239.8295500518467 294.31764255527924L260.9971266098779 226.27900361875035L300.7493313959425 226.27900361875035L300.7493313959425 233.8388523894758L284.1176641003465 235.6658158424011L296.21342213350715 329.55493765882716L309.3801587425206 331.213904472403L309.3801587425206 338.6267561836977L265.82702999117475 338.6267561836977L265.82702999117475 331.213904472403L279.58175483791126 329.7019347182579L272.7778909442584 261.8102928411598L269.6069543765374 232.64187633411092L263.2650812410956 254.41844070978388L238.0025865989214 333.48185910362065L228.17478319697835 333.48185910362065L203.68927301179542 261.05430796408734L194.7644515463557 232.49487927468016L192.05550573684576 261.8102928411598L186.0076267202654 329.7019347182579L200.9593276223668 331.213904472403L200.9593276223668 338.6267561836977L161.5011169551638 338.6267561836977L161.5011169551638 331.213904472403L174.35285986539705 329.7019347182579ZM329.3297596652683 376.27900297789404Q326.7678109151891 376.27900297789404 324.26886090486596 375.96400927911384Q321.76991089454293 375.6700151602523 320.7199318986088 375.0610273426105L320.7199318986088 375.0610273426105L320.7199318986088 361.9152903135157Q321.6229138351122 362.52427813115753 324.26886090486596 362.81827225001905Q326.91480797462 363.11226636888057 329.3297596652683 363.11226636888057L329.3297596652683 363.11226636888057Q336.59561431713223 363.11226636888057 342.1185038357455 358.05136760847824Q347.6203937744401 352.99046884807603 352.76529085451716 338.6267561836977L352.76529085451716 338.6267561836977L345.5204357825719 338.6267561836977L316.7930104538153 263.78425335351596L309.821149920813 261.8102928411598L309.821149920813 254.71243482864543L346.2764206596445 254.71243482864543L346.2764206596445 261.8102928411598L334.6216538047761 263.6372562940852L349.4473572273654 308.2403640413652L356.39821818044913 330.31092253589975L362.9080879552404 308.0933669819344L376.3478191031967 263.6372562940852L366.22602158239215 261.8102928411598L366.22602158239215 254.71243482864543L396.61241372472455 254.71243482864543L396.61241372472455 261.8102928411598L389.0525649539992 263.6372562940852Q366.83500940003387 331.67589523061406 362.9080879552404 340.89471081491536L362.9080879552404 340.89471081491536Q357.76319087516345 353.8934507845793 353.52127573158975 361.22230417619926Q349.3003601679346 368.5721571477378 343.54647527021586 372.4150802728566Q337.7925903724971 376.27900297789404 329.3297596652683 376.27900297789404L329.3297596652683 376.27900297789404Z " fill="#f9d342" transform="matrix(1.1121973418954185,0,0,1.1121973418954185,0,-35.08172486463377)"/><path d="M596.9751025303555 376.2790011154857Q575.3199806422264 376.2790011154857 560.0629629483172 366.92792575470264Q544.8059452544081 357.5768503939197 536.9313554769066 340.6519508374147Q529.0567656994051 323.7270512809098 529.0567656994051 300.8962093912787L529.0567656994051 300.8962093912787Q529.0567656994051 278.8309526189047 538.2984717577228 261.9060530623998Q547.5401778160405 244.98115350589484 563.6994922552884 235.6300781451118Q579.8314643689199 226.2790027843288 599.9280736969184 226.2790027843288L599.9280736969184 226.2790027843288Q615.0757220883623 226.2790027843288 636.348051417863 231.00922511595294L636.348051417863 231.00922511595294L642.8281825889319 232.18494511745493L640.8595351445565 267.62059911621157L627.680534197488 267.62059911621157L622.7589155865495 242.6023711772746Q619.9973406993007 240.25093117427068 613.2164439464523 238.58304931167487Q606.4082048679874 236.91516744907906 596.5649676461106 236.91516744907906L596.5649676461106 236.91516744907906Q583.9601555369849 236.91516744907906 574.1169183151081 244.07885676055614Q564.2736810932312 251.2698883976495 558.6685043418846 265.24181678759135Q553.063327590538 279.24108750314963 553.063327590538 298.7088233419728L553.063327590538 298.7088233419728Q553.063327590538 317.2195777842245 557.9849462014765 332.39456850128465Q562.906564812415 347.54221689272856 572.9411983136062 356.51049969488304Q582.9758318147973 365.45144017142115 597.7406876476126 365.45144017142115L597.7406876476126 365.45144017142115Q608.1854560330486 365.45144017142115 613.7906327843951 363.67418900636005Q619.3958095357417 361.9242801669153 623.3331044244924 358.5611741161073L623.3331044244924 358.5611741161073L631.6178290862388 339.2848345565985L644.0039025904339 340.843347116729L639.3010225844259 368.81454622222907Q635.1449890907447 369.00594250154336 627.0790030339288 371.5487787838615L627.0790030339288 371.5487787838615Q619.9973406993007 373.73616483316755 613.4078402257666 374.9939118115184Q606.8183397522323 376.2790011154857 596.9751025303555 376.2790011154857L596.9751025303555 376.2790011154857ZM647.9411974791847 237.68075256633617L647.9411974791847 227.8375153444593L700.3290933600624 227.8375153444593L700.3290933600624 237.68075256633617L682.8026626399985 240.05953489495639L715.2853454721921 332.39456850128465L722.5584040861345 356.4011303924177L729.0658775828197 331.9844336170398L758.4041929691359 240.05953489495639L742.8464096934472 237.68075256633617L742.8464096934472 227.8375153444593L786.7308423076483 227.8375153444593L786.7308423076483 237.68075256633617L774.1533725241391 240.05953489495639L727.4800226970729 375.7048122775428L710.3637268612536 375.7048122775428L659.9718207503674 240.05953489495639L647.9411974791847 237.68075256633617Z " fill="#292826" transform="matrix(1.1121973418954185,0,0,1.1121973418954185,0,-35.08172486463377)"/></g></svg>